<svg width="196" height="21" viewBox="0 0 196 21" fill="none" xmlns="http://www.w3.org/2000/svg">
<path d="M7.776 20.24C6.368 20.24 5.136 19.96 4.08 19.4C3.04 18.84 2.232 18.072 1.656 17.096C1.096 16.104 0.816 14.976 0.816 13.712C0.816 12.72 0.976 11.816 1.296 11C1.616 10.168 2.064 9.456 2.64 8.864C3.232 8.272 3.92 7.816 4.704 7.496C5.504 7.16 6.376 6.992 7.32 6.992C8.216 6.992 9.032 7.152 9.768 7.472C10.504 7.792 11.144 8.24 11.688 8.816C12.232 9.392 12.648 10.072 12.936 10.856C13.224 11.64 13.36 12.496 13.344 13.424L13.32 14.48H3.192L2.616 12.296H10.176L9.768 12.728V12.248C9.736 11.848 9.608 11.504 9.384 11.216C9.176 10.912 8.896 10.672 8.544 10.496C8.208 10.32 7.824 10.232 7.392 10.232C6.752 10.232 6.208 10.36 5.76 10.616C5.328 10.856 5 11.208 4.776 11.672C4.552 12.136 4.44 12.712 4.44 13.4C4.44 14.088 4.584 14.696 4.872 15.224C5.176 15.752 5.608 16.16 6.168 16.448C6.744 16.736 7.424 16.88 8.208 16.88C8.736 16.88 9.216 16.8 9.648 16.64C10.08 16.48 10.544 16.208 11.04 15.824L12.84 18.368C12.344 18.784 11.816 19.136 11.256 19.424C10.696 19.696 10.12 19.896 9.528 20.024C8.952 20.168 8.368 20.24 7.776 20.24ZM16.8459 20V4.04H20.7099V20H16.8459ZM14.5899 10.64V7.256H23.1579V10.64H14.5899ZM25.5919 20V7.256H29.4559V20H25.5919ZM27.5359 4.736C26.7999 4.736 26.2239 4.568 25.8079 4.232C25.4079 3.88 25.2079 3.384 25.2079 2.744C25.2079 2.152 25.4159 1.672 25.8319 1.304C26.2479 0.935999 26.8159 0.751999 27.5359 0.751999C28.2399 0.751999 28.7919 0.927999 29.1919 1.28C29.6079 1.616 29.8159 2.104 29.8159 2.744C29.8159 3.336 29.6079 3.816 29.1919 4.184C28.7919 4.552 28.2399 4.736 27.5359 4.736ZM39.1588 20.24C37.7508 20.24 36.5188 19.96 35.4628 19.4C34.4228 18.84 33.6148 18.072 33.0388 17.096C32.4788 16.104 32.1988 14.976 32.1988 13.712C32.1988 12.72 32.3588 11.816 32.6788 11C32.9988 10.168 33.4468 9.456 34.0228 8.864C34.6148 8.272 35.3028 7.816 36.0868 7.496C36.8868 7.16 37.7588 6.992 38.7028 6.992C39.5988 6.992 40.4148 7.152 41.1508 7.472C41.8868 7.792 42.5268 8.24 43.0708 8.816C43.6148 9.392 44.0308 10.072 44.3188 10.856C44.6068 11.64 44.7428 12.496 44.7268 13.424L44.7028 14.48H34.5748L33.9988 12.296H41.5588L41.1508 12.728V12.248C41.1188 11.848 40.9908 11.504 40.7668 11.216C40.5588 10.912 40.2788 10.672 39.9268 10.496C39.5908 10.32 39.2068 10.232 38.7748 10.232C38.1348 10.232 37.5908 10.36 37.1428 10.616C36.7108 10.856 36.3828 11.208 36.1588 11.672C35.9348 12.136 35.8228 12.712 35.8228 13.4C35.8228 14.088 35.9668 14.696 36.2548 15.224C36.5588 15.752 36.9908 16.16 37.5508 16.448C38.1268 16.736 38.8068 16.88 39.5908 16.88C40.1188 16.88 40.5988 16.8 41.0308 16.64C41.4628 16.48 41.9268 16.208 42.4228 15.824L44.2228 18.368C43.7268 18.784 43.1988 19.136 42.6388 19.424C42.0788 19.696 41.5028 19.896 40.9108 20.024C40.3348 20.168 39.7508 20.24 39.1588 20.24ZM47.1728 20V7.256H50.8448L50.9888 9.848L50.1968 10.136C50.3728 9.56 50.6848 9.04 51.1328 8.576C51.5968 8.096 52.1488 7.712 52.7888 7.424C53.4288 7.136 54.1008 6.992 54.8048 6.992C55.7648 6.992 56.5728 7.192 57.2288 7.592C57.8848 7.976 58.3728 8.56 58.6927 9.344C59.0288 10.112 59.1968 11.064 59.1968 12.2V20H55.3328V12.488C55.3328 11.976 55.2608 11.552 55.1168 11.216C54.9728 10.88 54.7568 10.632 54.4688 10.472C54.1808 10.312 53.8208 10.24 53.3888 10.256C53.0528 10.256 52.7408 10.312 52.4528 10.424C52.1648 10.52 51.9088 10.672 51.6848 10.88C51.4768 11.072 51.3168 11.296 51.2048 11.552C51.0928 11.808 51.0368 12.096 51.0368 12.416V20H49.0928C48.6768 20 48.3008 20 47.9648 20C47.6448 20 47.3808 20 47.1728 20ZM62.4306 20V7.256H66.1026L66.2466 9.848L65.4546 10.136C65.6306 9.56 65.9426 9.04 66.3906 8.576C66.8546 8.096 67.4066 7.712 68.0466 7.424C68.6866 7.136 69.3586 6.992 70.0626 6.992C71.0226 6.992 71.8306 7.192 72.4866 7.592C73.1426 7.976 73.6306 8.56 73.9506 9.344C74.2866 10.112 74.4546 11.064 74.4546 12.2V20H70.5906V12.488C70.5906 11.976 70.5186 11.552 70.3746 11.216C70.2306 10.88 70.0146 10.632 69.7266 10.472C69.4386 10.312 69.0786 10.24 68.6466 10.256C68.3106 10.256 67.9986 10.312 67.7106 10.424C67.4226 10.52 67.1666 10.672 66.9426 10.88C66.7346 11.072 66.5746 11.296 66.4626 11.552C66.3506 11.808 66.2946 12.096 66.2946 12.416V20H64.3506C63.9346 20 63.5586 20 63.2226 20C62.9026 20 62.6386 20 62.4306 20ZM83.7604 20.24C82.3524 20.24 81.1204 19.96 80.0644 19.4C79.0244 18.84 78.2164 18.072 77.6404 17.096C77.0804 16.104 76.8004 14.976 76.8004 13.712C76.8004 12.72 76.9604 11.816 77.2804 11C77.6004 10.168 78.0484 9.456 78.6244 8.864C79.2164 8.272 79.9044 7.816 80.6884 7.496C81.4884 7.16 82.3604 6.992 83.3044 6.992C84.2004 6.992 85.0164 7.152 85.7524 7.472C86.4884 7.792 87.1284 8.24 87.6724 8.816C88.2164 9.392 88.6324 10.072 88.9204 10.856C89.2084 11.64 89.3444 12.496 89.3284 13.424L89.3044 14.48H79.1764L78.6004 12.296H86.1604L85.7524 12.728V12.248C85.7204 11.848 85.5924 11.504 85.3684 11.216C85.1604 10.912 84.8804 10.672 84.5284 10.496C84.1924 10.32 83.8084 10.232 83.3764 10.232C82.7364 10.232 82.1924 10.36 81.7444 10.616C81.3124 10.856 80.9844 11.208 80.7604 11.672C80.5364 12.136 80.4244 12.712 80.4244 13.4C80.4244 14.088 80.5684 14.696 80.8564 15.224C81.1604 15.752 81.5924 16.16 82.1524 16.448C82.7284 16.736 83.4084 16.88 84.1924 16.88C84.7204 16.88 85.2004 16.8 85.6324 16.64C86.0644 16.48 86.5284 16.208 87.0244 15.824L88.8244 18.368C88.3284 18.784 87.8004 19.136 87.2404 19.424C86.6804 19.696 86.1044 19.896 85.5124 20.024C84.9364 20.168 84.3524 20.24 83.7604 20.24ZM91.7743 20V7.256H95.4463L95.5903 9.848L94.7983 10.136C94.9743 9.56 95.2863 9.04 95.7343 8.576C96.1983 8.096 96.7503 7.712 97.3903 7.424C98.0303 7.136 98.7023 6.992 99.4063 6.992C100.366 6.992 101.174 7.192 101.83 7.592C102.486 7.976 102.974 8.56 103.294 9.344C103.63 10.112 103.798 11.064 103.798 12.2V20H99.9343V12.488C99.9343 11.976 99.8623 11.552 99.7183 11.216C99.5743 10.88 99.3583 10.632 99.0703 10.472C98.7823 10.312 98.4223 10.24 97.9903 10.256C97.6543 10.256 97.3423 10.312 97.0543 10.424C96.7663 10.52 96.5103 10.672 96.2863 10.88C96.0783 11.072 95.9183 11.296 95.8063 11.552C95.6943 11.808 95.6383 12.096 95.6383 12.416V20H93.6943C93.2783 20 92.9023 20 92.5663 20C92.2463 20 91.9823 20 91.7743 20ZM113.008 20.24C111.696 20.24 110.52 19.96 109.48 19.4C108.44 18.824 107.624 18.04 107.032 17.048C106.44 16.04 106.144 14.904 106.144 13.64C106.144 12.344 106.44 11.2 107.032 10.208C107.624 9.2 108.44 8.416 109.48 7.856C110.52 7.28 111.696 6.992 113.008 6.992C114.336 6.992 115.512 7.28 116.536 7.856C117.576 8.416 118.392 9.2 118.984 10.208C119.576 11.2 119.872 12.344 119.872 13.64C119.872 14.904 119.576 16.04 118.984 17.048C118.392 18.04 117.576 18.824 116.536 19.4C115.512 19.96 114.336 20.24 113.008 20.24ZM113.008 16.928C113.584 16.928 114.088 16.784 114.52 16.496C114.968 16.208 115.32 15.816 115.576 15.32C115.832 14.824 115.952 14.264 115.936 13.64C115.952 12.984 115.832 12.408 115.576 11.912C115.32 11.4 114.968 11.008 114.52 10.736C114.088 10.448 113.584 10.304 113.008 10.304C112.448 10.304 111.944 10.448 111.496 10.736C111.048 11.024 110.696 11.416 110.44 11.912C110.184 12.408 110.056 12.984 110.056 13.64C110.056 14.264 110.184 14.824 110.44 15.32C110.696 15.816 111.048 16.208 111.496 16.496C111.944 16.784 112.448 16.928 113.008 16.928ZM128.456 20.24C127.048 20.24 125.816 19.96 124.76 19.4C123.72 18.84 122.912 18.072 122.336 17.096C121.776 16.104 121.496 14.976 121.496 13.712C121.496 12.72 121.656 11.816 121.976 11C122.296 10.168 122.744 9.456 123.32 8.864C123.912 8.272 124.6 7.816 125.384 7.496C126.184 7.16 127.056 6.992 128 6.992C128.896 6.992 129.712 7.152 130.448 7.472C131.184 7.792 131.824 8.24 132.368 8.816C132.912 9.392 133.328 10.072 133.616 10.856C133.904 11.64 134.04 12.496 134.024 13.424L134 14.48H123.872L123.296 12.296H130.856L130.448 12.728V12.248C130.416 11.848 130.288 11.504 130.064 11.216C129.856 10.912 129.576 10.672 129.224 10.496C128.888 10.32 128.504 10.232 128.072 10.232C127.432 10.232 126.888 10.36 126.44 10.616C126.008 10.856 125.68 11.208 125.456 11.672C125.232 12.136 125.12 12.712 125.12 13.4C125.12 14.088 125.264 14.696 125.552 15.224C125.856 15.752 126.288 16.16 126.848 16.448C127.424 16.736 128.104 16.88 128.888 16.88C129.416 16.88 129.896 16.8 130.328 16.64C130.76 16.48 131.224 16.208 131.72 15.824L133.52 18.368C133.024 18.784 132.496 19.136 131.936 19.424C131.376 19.696 130.8 19.896 130.208 20.024C129.632 20.168 129.048 20.24 128.456 20.24ZM136.47 20V2.24H140.334V20H136.47ZM144.791 20.264C144.263 20.264 143.855 20.112 143.567 19.808C143.279 19.488 143.135 19.04 143.135 18.464C143.135 17.936 143.287 17.504 143.591 17.168C143.895 16.832 144.295 16.664 144.791 16.664C145.319 16.664 145.727 16.824 146.015 17.144C146.303 17.448 146.447 17.888 146.447 18.464C146.447 18.992 146.295 19.424 145.991 19.76C145.687 20.096 145.287 20.264 144.791 20.264Z" fill="#013462"/>
<path d="M154.596 20.24C153.428 20.24 152.38 19.952 151.452 19.376C150.54 18.8 149.812 18.016 149.268 17.024C148.74 16.032 148.476 14.92 148.476 13.688C148.476 12.456 148.74 11.344 149.268 10.352C149.812 9.36 150.54 8.576 151.452 8C152.38 7.424 153.428 7.136 154.596 7.136C155.716 7.136 156.732 7.368 157.644 7.832C158.572 8.28 159.276 8.896 159.756 9.68L158.388 11.36C158.132 10.992 157.804 10.656 157.404 10.352C157.004 10.048 156.58 9.808 156.132 9.632C155.684 9.456 155.252 9.368 154.836 9.368C154.068 9.368 153.38 9.56 152.772 9.944C152.18 10.312 151.708 10.824 151.356 11.48C151.004 12.136 150.828 12.872 150.828 13.688C150.828 14.504 151.012 15.24 151.38 15.896C151.748 16.536 152.236 17.048 152.844 17.432C153.452 17.816 154.124 18.008 154.86 18.008C155.292 18.008 155.708 17.936 156.108 17.792C156.524 17.648 156.924 17.432 157.308 17.144C157.692 16.856 158.052 16.504 158.388 16.088L159.756 17.768C159.244 18.488 158.508 19.08 157.548 19.544C156.604 20.008 155.62 20.24 154.596 20.24ZM167.751 20.24C166.519 20.24 165.415 19.96 164.439 19.4C163.479 18.824 162.719 18.048 162.159 17.072C161.599 16.08 161.319 14.952 161.319 13.688C161.319 12.424 161.599 11.304 162.159 10.328C162.719 9.336 163.479 8.56 164.439 8C165.415 7.424 166.519 7.136 167.751 7.136C168.967 7.136 170.055 7.424 171.015 8C171.991 8.56 172.759 9.336 173.319 10.328C173.879 11.304 174.159 12.424 174.159 13.688C174.159 14.952 173.879 16.08 173.319 17.072C172.759 18.048 171.991 18.824 171.015 19.4C170.055 19.96 168.967 20.24 167.751 20.24ZM167.751 17.984C168.503 17.984 169.175 17.8 169.767 17.432C170.359 17.048 170.823 16.536 171.159 15.896C171.495 15.24 171.655 14.504 171.639 13.688C171.655 12.856 171.495 12.12 171.159 11.48C170.823 10.824 170.359 10.312 169.767 9.944C169.175 9.576 168.503 9.392 167.751 9.392C166.999 9.392 166.319 9.584 165.711 9.968C165.119 10.336 164.655 10.848 164.319 11.504C163.983 12.144 163.823 12.872 163.839 13.688C163.823 14.504 163.983 15.24 164.319 15.896C164.655 16.536 165.119 17.048 165.711 17.432C166.319 17.8 166.999 17.984 167.751 17.984ZM176.805 20V7.4H179.301V10.088L178.845 10.376C178.973 9.96 179.173 9.56 179.445 9.176C179.733 8.792 180.077 8.456 180.477 8.168C180.893 7.864 181.333 7.624 181.797 7.448C182.277 7.272 182.765 7.184 183.261 7.184C183.981 7.184 184.613 7.304 185.157 7.544C185.701 7.784 186.149 8.144 186.501 8.624C186.853 9.104 187.109 9.704 187.269 10.424L186.885 10.328L187.053 9.92C187.229 9.552 187.469 9.208 187.773 8.888C188.093 8.552 188.453 8.256 188.853 8C189.253 7.744 189.677 7.544 190.125 7.4C190.573 7.256 191.013 7.184 191.445 7.184C192.389 7.184 193.165 7.376 193.773 7.76C194.397 8.144 194.861 8.728 195.165 9.512C195.485 10.296 195.645 11.272 195.645 12.44V20H193.149V12.584C193.149 11.512 192.941 10.728 192.525 10.232C192.125 9.72 191.493 9.464 190.629 9.464C190.181 9.464 189.757 9.544 189.357 9.704C188.973 9.848 188.637 10.056 188.349 10.328C188.061 10.6 187.837 10.92 187.677 11.288C187.517 11.64 187.437 12.032 187.437 12.464V20H184.941V12.536C184.941 11.544 184.725 10.784 184.293 10.256C183.877 9.728 183.269 9.464 182.469 9.464C182.021 9.464 181.605 9.544 181.221 9.704C180.837 9.848 180.501 10.056 180.213 10.328C179.925 10.584 179.701 10.896 179.541 11.264C179.381 11.616 179.301 12 179.301 12.416V20H176.805Z" fill="#06A2FF"/>
</svg>
